<svg width="53" height="18" viewBox="0 0 53 18" fill="none" xmlns="http://www.w3.org/2000/svg">
    <path fill-rule="evenodd" clip-rule="evenodd"
        d="M49.4607 15.7049C48.7594 16.4506 46.8884 16.5916 43.8987 16.5916C42.4353 16.5916 41.4355 16.5578 40.6029 16.4804L51.7664 1.27051L51.4498 0.648961H40.5242C39.5416 0.648961 39.5416 0.486922 39.2709 0H38.2612C38.1742 2.33223 37.9134 5.21748 37.9134 5.21748L39.1232 5.25779C39.1232 5.25779 39.3709 4.2122 39.8237 3.30769C40.3782 2.20405 40.6399 2.06378 43.4582 2.05813H47.935L36.6207 17.3559L36.9693 18H51.0897C51.5014 16.5038 52.1379 13.1646 52.1379 13.1646L50.9346 12.9204C50.9346 12.9204 50.3236 14.7866 49.4607 15.7049Z"
        fill="#FFFFFF" />
    <path fill-rule="evenodd" clip-rule="evenodd"
        d="M32.7011 15.7049C32.0022 16.4506 30.1303 16.5916 27.1404 16.5916C25.6779 16.5916 24.6763 16.5578 23.8454 16.4804L35.0085 1.27051L34.6911 0.648961H23.7666C22.7814 0.648961 22.7814 0.486922 22.5124 0H21.5018C21.4149 2.33223 21.1557 5.21748 21.1557 5.21748L22.3639 5.25779C22.3639 5.25779 22.6116 4.2122 23.0653 3.30769C23.6198 2.20405 23.8823 2.06378 26.6991 2.05813H31.177L19.8621 17.3559L20.2115 18H34.3326C34.7436 16.5038 35.3793 13.1646 35.3793 13.1646L34.176 12.9204C34.176 12.9204 33.564 14.7866 32.7011 15.7049Z"
        fill="#FFFFFF" />
    <path fill-rule="evenodd" clip-rule="evenodd"
        d="M12.4206 1.81292C12.4206 1.81292 12.972 1.81453 13.6916 1.91295C14.8652 2.07347 14.9968 2.73734 15.0526 3.23101C15.1809 4.09978 15.2383 5.41946 15.2383 7.50949V13.1302L4.30205 0.62069H0V1.80405C0 1.80405 1.31102 1.82179 1.91239 2.23238C3.02435 2.99144 2.92356 3.71178 2.92356 5.17021V10.8861C2.92356 12.7866 2.87192 14.2305 2.76364 15.3066C2.70367 15.8842 2.5171 16.3504 1.8974 16.5851C1.37766 16.782 0.403135 16.7932 0.403135 16.7932V17.9831H7.2506V16.7932C7.2506 16.7932 6.13865 16.7731 5.55894 16.565C4.8901 16.327 4.73517 15.8648 4.67354 15.2525C4.56609 14.2507 4.51362 12.8229 4.51362 10.8861V4.96209L15.6348 18H16.8276V7.50949C16.8276 5.25974 16.8734 3.99491 16.9875 3.14067C17.0283 2.71234 17.204 2.25981 17.6705 2.06298C18.2694 1.81131 19.2414 1.8105 19.2414 1.8105V0.621496L12.4206 0.62069V1.81292Z"
        fill="#FFFFFF" />
</svg>