<svg class="s-button__icon" viewBox="0 0 28 28" width="28" height="28" xmlns="http://www.w3.org/2000/svg">
    <path
        d="M2.488 21.49A13.428 13.428 0 0 1 0 13.695C0 6.131 6.267 0 13.998 0c7.73 0 13.997 6.131 13.997 13.694 0 7.564-6.267 13.695-13.997 13.695-2.706 0-5.232-.751-7.373-2.051L1.383 28l1.105-6.51zm10.322-5.043c0-.771.096-1.385.287-1.842.192-.457.542-.908 1.052-1.35.509-.444.848-.805 1.017-1.083.169-.278.253-.571.253-.88 0-.93-.439-1.396-1.317-1.396-.416 0-.75.126-1 .376s-.382.596-.393 1.037h-2.448c.01-1.052.358-1.875 1.042-2.47.684-.595 1.617-.892 2.8-.892 1.192 0 2.118.282 2.777.847.659.564.988 1.361.988 2.391 0 .468-.107.91-.321 1.326-.214.415-.588.877-1.123 1.383l-.684.636c-.428.402-.672.873-.734 1.413l-.034.504H12.81zm-.244 2.535c0-.368.128-.673.384-.912.256-.24.584-.36.983-.36.4 0 .728.12.984.36s.384.544.384.912c0 .364-.125.664-.376.9-.25.238-.58.356-.992.356-.41 0-.741-.118-.992-.355a1.186 1.186 0 0 1-.375-.9z"
        fill="currentColor" fill-rule="evenodd"></path>
</svg>